<svg xmlns="http://www.w3.org/2000/svg" fill='#c7c7c7' width="50" height="50" version="1.0" viewBox="0 0 1080 1080"><path d="M630 54c-11.9.9-26.4 3.3-33.6 5.5-2.7.8-6.2 1.5-7.8 1.5-4.2 0-34.7 12.5-36.6 14.9-.5.6-13 8.2-17.8 10.8-1.2.7-5.5 4-9.5 7.5-4.1 3.5-9.8 8.3-12.7 10.8-6.1 5.1-5.9 4.9-19.5 19.3-5.5 5.9-10.6 10.7-11.2 10.7-.7 0-1.3.4-1.3.9 0 1.2-24 25.1-25.2 25.1-.4 0-.8.5-.8 1.2 0 1.3-20.6 21.8-21.9 21.8-.5 0-1.6 1.1-2.5 2.5-2.1 3.3-41.1 42.3-45.8 45.9-2.1 1.6-3.8 3.3-3.8 3.9 0 1.2-46.9 47.7-48.2 47.7-.4 0-.8.5-.8 1.2 0 1.2-20.7 21.8-22 21.8-.4 0-1.6 1.2-2.5 2.7-2.3 3.5-46.3 47.3-47.6 47.3-.5 0-.9.5-.9 1.2 0 1.4-20.3 21.8-21.7 21.8-.6 0-1.8 1.2-2.8 2.6-2.4 3.7-45.7 46.9-47.7 47.7-1 .3-1.8 1.2-1.8 1.8 0 .6-27.4 28.7-61 62.3-47.5 47.7-62.6 63.4-68.6 71.6-4.3 5.8-8 10.7-8.4 11-3.2 2.6-17 29.5-21 41-1.2 3.6-2.6 7.4-3.1 8.5-1.8 4.2-6.1 22.4-7.4 32-2.7 18.8-1.3 50.4 3 67.5 3.7 14.9 9.7 30.5 17.8 46.5 4.2 8.3 15.4 25.5 16.6 25.5.4 0 3.2 3.3 6.2 7.2 2.9 4 32.6 34.5 65.9 67.8 33.3 33.3 62.8 63.2 65.7 66.3 2.8 3.1 5.6 5.7 6.1 5.7.6 0 5.5 4.8 10.9 10.6 5.4 5.9 14.3 14.2 19.8 18.6 15.5 12.3 27 17.7 46 21.1l12 2.1 353.1.3 353 .3 9.2-2.3c9.9-2.6 16.5-6.7 19.7-12.2 6.1-10.4 6.9-12.9 6.9-20.5-.1-7.6-.3-8.3-7.1-20.4-3.2-5.8-13.2-11.9-22.2-13.6-3.5-.7-69.5-1-192.2-1-111.3 0-187-.4-187.3-.9-.4-.5.8-2.2 2.4-3.8 7.9-7.4 351.3-351.4 354.7-355.3 2.1-2.5 5.9-7 8.3-10 2.5-3 5.5-6.6 6.7-8 1.3-1.4 3-4.1 4-6 .9-1.9 3.9-6.9 6.6-11 7.5-11.3 17.1-32.7 18.7-41.9.4-2.5 1.9-9.8 3.4-16.2 5.5-24.9 5.5-53-.1-77.2-1.4-6.1-2.9-13-3.4-15.2-4.2-20.7-23.5-54.2-42-73-3.2-3.3-10.5-10.8-16.1-16.6-5.7-5.9-11.5-11.4-13-12.4-1.6-.9-2.8-2.2-2.8-2.7 0-.6-4.6-5.5-10.2-11-5.7-5.5-10.6-10.3-10.9-10.6l-49.7-49.7c-.6-.6-5.7-5.8-11.3-11.8-5.6-5.9-10.8-10.7-11.5-10.7-.8 0-1.4-.5-1.4-1 0-.6-5.7-6.7-12.7-13.6-7.1-6.9-13.2-13-13.8-13.6-2.8-3-47.6-47.6-51.5-51.2-11.4-10.7-34-25.7-52.3-34.8-6-3-19.8-7.9-24.7-8.8-2.5-.4-7.6-1.5-11.5-2.4-18.8-4.5-36.1-5.9-53.5-4.6zm37.5 71.3c3.3.8 9.8 2.9 14.5 4.7 4.7 1.8 10.2 3.9 12.3 4.6 4.1 1.5 16.6 9.5 23.7 15.2 2.5 2 51.3 50.4 108.5 107.6 96.6 96.6 104.6 104.9 111.3 114.9 4 5.9 7.2 11.3 7.2 12 0 .7 1.6 5.3 3.6 10.2 6.5 16.5 7.8 23.9 7.8 43.5.1 15.7-.2 18.5-2.6 27.5-1.4 5.5-4 13-5.7 16.7-1.7 3.6-3.1 7.1-3.1 7.8 0 1.9-4.1 9.3-8.3 15-3.6 4.8-16.5 20.3-18.5 22.2-13.6 13-22.2 21.8-22.2 22.7 0 .6-.4 1.1-1 1.1-.7 0-39.2 38.1-49 48.5-.8.9-6.6 6.5-12.7 12.5-6.2 6-11.3 11.4-11.3 12 0 .5-.4 1-.9 1-.6 0-5.9 5-11.8 11.1s-11.9 12.1-13.2 13.3c-5.9 5.2-22.1 21.8-23.1 23.6-.6 1.1-1.5 2-2.1 2-.7 0-10.4 9.6-23.2 23-5.4 5.7-17.6 16.9-19.4 17.8-2 1.1-14.1-10.7-174.5-171.1-208.1-208.2-190.4-190.1-189.2-192.8 1.1-2.3 187.4-189.1 196.9-197.3 11.2-9.7 26-19.6 29.4-19.6.5 0 3.8-1.3 7.3-2.9 6.4-3 18.2-6.6 26.7-8.2 6.5-1.2 35.5-.2 42.6 1.4zM495.7 585.6c99.2 99.1 180.3 181 180.3 181.9 0 1-5.7 7.6-12.7 14.7-7 7.1-13.1 13.5-13.6 14.3-.4.8-1.2 1.5-1.7 1.5-.6 0-15.1 14-23.8 23.1l-5.9 5.9c-2.5 2.5-7.9 8-12 12.2-4.1 4.3-7.8 7.8-8.2 7.8-1 0-19.8 19.6-21.1 21.9-.6 1.2-1.5 2.1-1.9 2.1-.9 0-31.4 30.2-44.4 43.9-3.8 3.9-8.7 8.4-10.9 9.9l-4.2 2.7-116 .3c-83.2.2-117.2 0-119.9-.8-3.2-.9-18.1-15.4-86.8-84.1-45.6-45.6-82.9-83.4-82.9-84 0-1.1-4.9-7.7-7.9-10.9-2.2-2.3-13.6-26.8-14.9-32-5.3-21.6-4.6-51.7 1.5-70 3.9-11.5 7.4-18.6 14.6-29.4 3.7-5.5 6.7-10.1 6.7-10.3 0-.1 11.3-11.5 25-25.3s25-25.4 25-25.8c0-.5 1.3-1.8 3-3 4.4-3.3 21-19.3 21-20.3 0-.5 3.7-4.4 8.2-8.6 10.8-10.2 18.8-18.5 18.8-19.5 0-.4.5-.8 1-.8.6 0 5.4-4.6 10.8-10.2 5.3-5.6 11-11.4 12.6-12.8 3.9-3.3 28.7-28.1 40.4-40.3 5.1-5.3 9.6-9.7 10.1-9.7.7 0 11.6-11.2 20.9-21.4 3.4-3.8 4.7-4.6 6.5-4 1.2.4 83.3 81.8 182.4 181z"/></svg>